<svg width="22" height="24" viewBox="0 0 22 24" fill="none" xmlns="http://www.w3.org/2000/svg">
<path d="M21.5151 6.01807C20.1454 6.01807 18.8816 5.56432 17.8668 4.79885C16.7029 3.92135 15.8666 2.63416 15.5713 1.15057C15.4982 0.784004 15.4588 0.405723 15.4551 0.0180664H11.5424V10.7093L11.5377 16.5654C11.5377 18.131 10.5182 19.4585 9.1049 19.9254C8.69477 20.0609 8.2518 20.1251 7.79055 20.0998C7.2018 20.0674 6.65008 19.8898 6.17055 19.6029C5.15008 18.9926 4.45821 17.8854 4.43946 16.6188C4.40993 14.6393 6.01024 13.0254 7.98837 13.0254C8.37883 13.0254 8.75383 13.0891 9.1049 13.2049V10.2827V9.23229C8.73462 9.17744 8.35774 9.14885 7.97665 9.14885C5.81149 9.14885 3.78649 10.0488 2.33899 11.6702C1.24493 12.8956 0.588678 14.4588 0.487428 16.098C0.354768 18.2515 1.14274 20.2985 2.67086 21.8088C2.8954 22.0305 3.13118 22.2363 3.37774 22.4262C4.6879 23.4345 6.28962 23.981 7.97665 23.981C8.35774 23.981 8.73462 23.9529 9.1049 23.898C10.6809 23.6646 12.1349 22.9432 13.2824 21.8088C14.6924 20.4152 15.4715 18.5651 15.4799 16.5959L15.4598 7.85088C16.1324 8.36979 16.8679 8.79916 17.6573 9.13244C18.8849 9.65041 20.1866 9.91291 21.5263 9.91244V7.07135V6.01713C21.5273 6.01807 21.516 6.01807 21.5151 6.01807Z" fill="black"/>
</svg>
