<svg width="24" height="20" viewBox="0 0 24 20" fill="none" xmlns="http://www.w3.org/2000/svg">
<path d="M23.9539 2.56909C23.069 2.95809 22.124 3.22309 21.129 3.34409C22.143 2.73309 22.923 1.77009 23.292 0.621094C22.341 1.17609 21.287 1.58009 20.165 1.80509C19.269 0.846094 17.992 0.246094 16.5739 0.246094C13.857 0.246094 11.6539 2.44909 11.6539 5.16309C11.6539 5.55309 11.699 5.92809 11.781 6.28709C7.69099 6.09409 4.066 4.13009 1.64 1.16109C1.21299 1.88309 0.974 2.72209 0.974 3.63609C0.974 5.34609 1.844 6.8491 3.162 7.73209C2.35499 7.70609 1.596 7.48409 0.934 7.11609V7.17709C0.934 9.56212 2.62699 11.5511 4.88 12.0041C4.46699 12.1151 4.03099 12.1751 3.584 12.1751C3.27 12.1751 2.96899 12.145 2.668 12.089C3.29899 14.0421 5.11299 15.4661 7.272 15.5061C5.592 16.825 3.46299 17.6111 1.17 17.6111C0.78 17.6111 0.391 17.5881 0 17.5441C2.18899 18.9381 4.768 19.753 7.55699 19.753C16.611 19.753 21.556 12.257 21.556 5.76709C21.556 5.55809 21.556 5.34709 21.541 5.13709C22.5019 4.44809 23.341 3.5771 24.001 2.5891L23.9539 2.56909Z" fill="#1C1C33"/>
</svg>
