<svg width="24" height="18" viewBox="0 0 24 18" fill="none" xmlns="http://www.w3.org/2000/svg">
<path d="M23.4965 3.20522C23.3574 2.70698 23.0921 2.25305 22.7264 1.88727C22.3606 1.52151 21.9067 1.25628 21.4085 1.11722C19.5384 0.616225 12.0124 0.616225 12.0124 0.616225C12.0124 0.616225 4.50545 0.606225 2.61644 1.11722C2.1182 1.25628 1.66426 1.52151 1.29849 1.88727C0.932721 2.25305 0.667492 2.70698 0.528441 3.20522C0.173963 5.11974 -0.000797883 7.06319 0.00644158 9.01019C0.000570699 10.9499 0.175324 12.886 0.528441 14.7932C0.667492 15.2914 0.932721 15.7455 1.29849 16.1113C1.66426 16.477 2.1182 16.7421 2.61644 16.8812C4.48444 17.3833 12.0124 17.3833 12.0124 17.3833C12.0124 17.3833 19.5184 17.3833 21.4085 16.8812C21.9067 16.7421 22.3606 16.477 22.7264 16.1113C23.0921 15.7455 23.3574 15.2914 23.4965 14.7932C23.8422 12.8853 24.0096 10.9493 23.9965 9.01019C24.011 7.06389 23.8435 5.12044 23.4965 3.20522ZM9.61044 12.6012V5.40823L15.8744 9.01019L9.61044 12.6012Z" fill="#1C1C33"/>
</svg>
